<svg xmlns="http://www.w3.org/2000/svg" width="720" height="220" viewBox="0 0 720 220"><g fill="#FFB703"><rect x="22" y="40" width="12" height="34" rx="2" transform="rotate(-20 22 40)"/><rect x="148" y="90" width="12" height="28" rx="2" transform="rotate(12 148 90)"/><rect x="262" y="20" width="12" height="32" rx="2" transform="rotate(-12 262 20)"/><rect x="378" y="98" width="12" height="28" rx="2" transform="rotate(24 378 98)"/><rect x="520" y="58" width="12" height="34" rx="2" transform="rotate(-18 520 58)"/><rect x="648" y="104" width="12" height="34" rx="2" transform="rotate(14 648 104)"/></g><g fill="#00C8C8"><circle cx="62" cy="112" r="6"/><circle cx="178" cy="44" r="6"/><circle cx="318" cy="132" r="6"/><circle cx="446" cy="44" r="6"/><circle cx="602" cy="132" r="6"/></g><g fill="#FF4FB3"><path d="M88 74h24v8H88zm280 54h24v8h-24zm198-72h24v8h-24z"/><path d="M112 170h24v8h-24zm230-30h24v8h-24z"/></g></svg>