<svg xmlns="http://www.w3.org/2000/svg" width="800" height="260" viewBox="0 0 800 260" fill="none">
  <rect width="800" height="260" fill="none"/>
  <path d="M20 38 C130 22, 245 30, 380 18 C500 8, 625 18, 780 10 L744 58 C610 62, 480 48, 350 62 C245 74, 138 74, 38 86 Z" fill="#F6C300" opacity="0.95"/>
  <path d="M48 104 C160 92, 300 90, 424 82 C544 74, 658 78, 762 66 L726 122 C612 132, 500 120, 380 136 C272 150, 172 148, 80 156 Z" fill="#0F49A8" opacity="0.92"/>
  <path d="M78 170 C188 162, 310 156, 448 146 C576 138, 676 140, 780 128 L744 186 C636 198, 520 188, 402 204 C294 218, 180 222, 112 226 Z" fill="#D82229" opacity="0.92"/>
</svg>